PathFileType	4	(X/Y/Z)	C:/Users/beibeiliu/ov580/test_trc/User3\sequence.7_training_dense_left.trc
DataRate	CameraRate	NumFrames	NumMarkers	Units	OrigDataRate	OrigDataStartFrame	OrigNumFrames
120	120	19	19	mm	120	148	236
Frame#	Time	ThumbCMC			ThumbMCP			ThumbIP			ThumbTip			IndexMCP			IndexPIP			IndexTip			MiddleMCP			MiddlePIP			MiddleTip			RingMCP			RingPIP			RingTip			PinkyMCP			PinkyPIP			PinkyTip			BackHand1			BackHand2			BackHand3	
		X0	Y0	Z0	X1	Y1	Z1	X2	Y2	Z2	X3	Y3	Z3	X4	Y4	Z4	X5	Y5	Z5	X6	Y6	Z6	X7	Y7	Z7	X8	Y8	Z8	X9	Y9	Z9	X10	Y10	Z10	X11	Y11	Z11	X12	Y12	Z12	X13	Y13	Z13	X14	Y14	Z14	X15	Y15	Z15	X16	Y16	Z16	X17	Y17	Z17	X18	Y18	Z18	
147	1.225	-173.78	-22.5065	7.86593	-156.327	-33.0271	-19.5789	-162.445	-47.3942	-46.0759	-178.562	-64.4962	-61.258	-197.125	-4.6282	-61.7378	-197.023	-6.12188	-87.6779	-197.868	-9.08541	-112.983	-208.762	-38.948	-64.3458	-190.278	-63.9755	-63.2424	-187.384	-55.3393	-24.7546	-220.052	-52.8332	-51.7716	-199.116	-74.0644	-40.565	-199.353	-58.5068	-9.56284	-231.112	-65.2206	-42.057	-207.809	-76.0331	-27.2221	-208.941	-59.6691	-0.780997	-238.415	-20.3042	-11.5394	-235.53	-20.2133	25.1474	-204.59	-4.1916	6.86661	
148	1.23333	-172.692	-21.6558	10.0992	-158.681	-33.6972	-21.3974	-160.96	-48.5455	-46.7024	-177.334	-67.4341	-61.5573	-199.545	-7.48839	-61.0714	-199.487	-9.15079	-88.0241	-200.034	-13.349	-115.611	-206.212	-37.0256	-64.8071	-188.213	-64.8602	-62.1876	-191.058	-56.0756	-23.2912	-219.498	-56.163	-52.5309	-199.371	-75.5731	-41.273	-195.731	-57.3887	-11.7662	-229.308	-64.8913	-41.8178	-206.705	-76.9281	-28.0108	-209.817	-59.921	-1.06144	-238.071	-21.7092	-12.34	-235.079	-19.8285	25.086	-207.88	-4.90301	4.88643	
149	1.24167	-174.901	-23.7033	10.0029	-154.294	-36.0455	-17.5616	-157.885	-52.734	-48.4386	-179.089	-69.9941	-59.5256	-196.858	-10.7418	-66.3081	-195.955	-13.7663	-88.3881	-189.267	-20.6323	-118.128	-203.636	-38.9964	-63.3446	-187.206	-68.5337	-62.3275	-187.757	-54.5793	-20.1489	-213.754	-55.7728	-53.0857	-197.165	-78.2109	-38.4727	-197.661	-63.6066	-10.1581	-227.792	-65.721	-40.7055	-208.66	-81.7803	-28.3019	-210.694	-62.883	-1.93159	-238.704	-23.6296	-12.7419	-238.742	-24.4911	21.922	-206.097	-4.68134	4.79204	
150	1.25	-174.282	-25.448	8.9822	-154.697	-40.9308	-17.1548	-152.457	-57.5026	-40.0697	-170.351	-76.5698	-54.8656	-190.525	-16.3923	-62.8615	-181.583	-20.1787	-92.1109	-178.091	-34.5448	-114.349	-198.867	-48.7323	-63.6535	-182.021	-74.4313	-53.5175	-183.89	-61.0136	-19.8419	-205.714	-61.1964	-52.9945	-192.214	-81.4632	-34.3549	-194.502	-62.963	-7.91473	-223.244	-73.0253	-41.6423	-203.235	-83.1382	-23.5998	-207.743	-64.4249	2.24996	-233.64	-25.2131	-11.6028	-236.061	-25.0547	18.6552	-205.647	-6.22778	3.63522	
151	1.25833	-167.352	-25.8591	11.7369	-153.209	-44.7682	-10.2415	-148.179	-65.9858	-36.2444	-168.238	-82.7429	-43.9106	-180.698	-24.5484	-61.0376	-170.012	-34.2051	-87.8527	-158.99	-54.9138	-106.463	-190.4	-55.3144	-58.0995	-171.971	-81.7894	-47.1143	-180.047	-62.1646	-11.9274	-198.693	-71.1136	-48.2688	-184.744	-86.102	-26.5418	-189.836	-67.9255	-2.2345	-211.814	-77.5971	-38.1282	-197.581	-88.9209	-17.3598	-203.802	-70.7146	4.62688	-231.53	-30.113	-18.0982	-236.132	-26.7227	14.9498	-204.835	-12.0652	-1.78664	
152	1.26667	-165.438	-28.3237	16.5074	-145.24	-48.8398	2.01209	-139.579	-72.2656	-20.5941	-156.735	-91.8383	-31.774	-166.507	-35.9257	-59.1385	-151.268	-50.3498	-81.003	-139.393	-73.0785	-89.7147	-176.781	-66.7682	-51.6037	-158.534	-88.1198	-33.8021	-173.297	-67.5795	-3.21935	-188.727	-76.5809	-39.7034	-176.615	-92.6017	-16.5287	-186.74	-66.4714	6.3656	-204.933	-88.1716	-30.4611	-187.777	-91.3574	-8.47915	-198.144	-70.4247	9.37038	-223.246	-36.4604	-15.7956	-230.047	-26.1307	12.8316	-200.005	-14.8292	0.436952	
153	1.275	-164.262	-29.3741	22.3427	-137.648	-51.0062	10.958	-134.956	-76.5913	-6.68727	-146.042	-97.4801	-14.298	-158.391	-48.2889	-49.1001	-135.308	-66.6958	-69.1367	-121.608	-92.0838	-69.1308	-159.918	-76.7319	-40.326	-148.741	-94.1875	-16.3497	-164.106	-66.5382	8.77019	-180.45	-86.7329	-27.5684	-166.847	-95.6995	1.74341	-176.856	-70.4052	16.8204	-191.178	-92.3168	-19.5058	-180.728	-95.5582	7.17327	-192.788	-73.4618	19.0623	-215.392	-46.831	-17.6623	-228.443	-31.8902	13.1659	-196.075	-17.8821	1.43659	
154	1.28333	-160.081	-28.4376	27.636	-130.19	-51.428	20.9675	-121.64	-80.7084	6.83758	-138.942	-99.3239	1.65787	-139.727	-55.9712	-42.5244	-122.699	-75.6873	-52.5247	-105.376	-95.0735	-52.2837	-150.687	-82.9676	-26.5694	-134.875	-93.8235	0.375614	-158.174	-64.7505	19.8628	-164.266	-88.0155	-15.5501	-157.87	-95.2772	16.7751	-171.931	-68.6681	26.9125	-181.093	-99.1659	-7.39474	-167.105	-95.1669	18.4751	-183.901	-75.4954	28.1779	-204.783	-50.7414	-12.1892	-222.303	-36.8552	14.6527	-186.555	-22.7789	1.63908	
155	1.29167	-156.337	-23.043	34.3664	-128.377	-47.6746	28.8006	-113.439	-74.2984	21.6624	-125.28	-100.603	13.5559	-127.33	-54.2245	-29.6741	-103.535	-72.1885	-38.6764	-85.3102	-91.8452	-37.6265	-136.198	-81.4822	-16.7901	-123.622	-88.002	15.5661	-149.38	-64.9148	28.6345	-149.837	-89.194	-4.87962	-144.889	-94.6593	26.1453	-162.206	-65.7934	35.2151	-163.37	-99.4205	3.56452	-158.203	-95.1633	29.5085	-174.481	-72.685	37.8039	-194.706	-53.8582	-9.33821	-215.394	-37.5281	14.1356	-185.175	-23.8286	4.33067	
156	1.3	-150.246	-18.6156	35.184	-122.188	-37.5694	34.8101	-102.307	-64.5236	29.0566	-107.884	-91.3607	25.6241	-116.978	-54.6164	-24.3974	-93.6708	-66.5936	-28.7654	-71.8406	-81.291	-26.0143	-122.657	-79.4894	-8.8431	-111.717	-83.2671	21.3519	-142.447	-59.9458	34.1692	-137.314	-89.8479	4.07427	-130.258	-83.7929	34.1913	-153.841	-60.5042	40.5346	-152.809	-93.6487	8.21791	-143.889	-89.6729	34.2502	-166.191	-69.6169	45.0154	-184.325	-57.2642	-6.00414	-205.509	-41.1697	14.2827	-176.378	-25.9298	3.89196	
157	1.30833	-148.719	-7.95773	38.2365	-117.884	-24.4637	40.7059	-94.228	-50.1701	34.6517	-99.8749	-77.0006	30.4623	-107.87	-40.1759	-20.1444	-84.0069	-51.7391	-22.9374	-57.7299	-64.2752	-20.4228	-114.952	-68.7066	-6.20331	-98.7954	-69.9105	25.6294	-134.637	-51.2042	36.3653	-127.02	-81.7632	8.9896	-119.274	-75.1319	37.7451	-145.572	-53.4676	43.8427	-138.091	-90.0046	15.5051	-131.895	-80.6862	40.2444	-153.377	-59.6897	44.4408	-176.382	-58.5851	-3.9369	-200.708	-44.5082	15.557	-171.78	-18.3248	7.01461	
158	1.31667	-147.646	-4.12861	35.8632	-112.207	-13.6068	38.2206	-92.728	-34.0925	35.9264	-88.2433	-60.285	33.9152	-103.218	-33.0306	-20.3576	-76.8368	-39.4532	-22.9786	-52.9638	-48.5981	-20.9334	-101.375	-57.204	-3.55865	-88.5355	-57.5831	24.2722	-123.381	-43.2658	38.8879	-113.296	-72.1413	12.6155	-108.509	-63.0787	40.5552	-135.956	-47.2093	48.6174	-126.238	-82.4394	20.4486	-123.591	-73.1382	45.0374	-149.081	-53.3894	47.5728	-170.665	-53.8225	1.21885	-196.206	-45.1083	17.5029	-169.761	-16.5402	5.427	
159	1.325	-150.334	4.49709	37.4513	-111.837	-2.56342	36.6409	-87.1882	-21.8215	32.643	-82.7473	-48.1056	32.5876	-104.134	-18.9823	-19.0843	-72.8433	-25.962	-25.1004	-52.542	-33.7921	-22.6694	-101.582	-47.8725	-3.80382	-86.5558	-46.201	27.1082	-121.61	-31.7188	38.6069	-110.508	-62.2731	12.8541	-102.347	-50.7581	41.1457	-131.641	-36.0123	47.1708	-119.414	-71.3373	20.5385	-116.247	-58.9982	44.3855	-140.056	-43.6182	50.5546	-167.529	-51.3325	1.16509	-191.741	-44.2226	17.3234	-169.415	-16.3934	5.68807	
160	1.33333	-154.26	8.76632	37.0394	-116.873	7.28231	35.5752	-87.8787	-8.73515	32.4909	-79.9676	-38.2553	30.2041	-104.978	-15.3758	-22.2308	-78.6755	-15.4634	-27.7194	-50.4154	-20.4578	-28.2561	-97.5147	-36.7727	-3.71433	-85.2219	-33.0948	25.6738	-123.693	-24.3778	37.4473	-109.314	-51.716	10.3957	-103.301	-44.1814	43.728	-130.122	-30.7934	48.3322	-117.944	-65.53	21.7356	-115.707	-50.0492	48.461	-142.373	-35.3635	48.1197	-162.078	-44.4547	-0.917876	-188.988	-37.7974	19.7839	-172.503	-8.92888	6.28204	
161	1.34167	-155.901	13.4339	35.3011	-116.832	15.5239	34.7242	-90.2992	-2.40463	29.1295	-79.7426	-28.1403	27.1688	-108.795	-4.85558	-23.4288	-83.6232	-5.67234	-30.9497	-54.6596	-13.0502	-33.4478	-102.992	-31.0636	-5.81059	-85.921	-28.087	22.8483	-121.696	-18.9841	37.5703	-106.831	-46.8396	10.0846	-100.503	-35.1638	37.6335	-132.953	-24.3259	45.8706	-118.325	-59.3294	18.9232	-112.341	-44.4497	42.2444	-140.957	-34.7897	49.597	-162.527	-42.1925	-0.0944745	-188.41	-40.1223	19.4356	-172.918	-9.78384	5.80173	
162	1.35	-157.669	16.6028	33.2693	-119.644	18.5765	31.1257	-92.6223	5.64865	27.7948	-83.606	-19.571	23.9382	-113.32	0.788989	-27.5023	-84.5687	-4.11036	-36.7127	-59.6683	-6.61938	-41.6826	-102.503	-25.5822	-9.33359	-88.1435	-18.3072	21.0384	-123.535	-10.8861	34.832	-107.706	-38.2103	7.36019	-103.288	-32.3372	34.6725	-132.3	-20.5422	44.9237	-116.793	-53.9139	16.1489	-114.711	-41.8284	42.1371	-145.387	-29.1779	45.9444	-167.326	-37.7893	-0.571759	-190.71	-34.5447	17.8454	-177.454	-0.222744	6.42815	
163	1.35833	-160.088	21.6357	31.2607	-126.53	22.9709	29.185	-95.0939	7.11835	19.7207	-85.765	-15.0295	18.7666	-119.125	3.59985	-30.9117	-92.9462	0.636429	-42.7009	-70.9021	-1.16214	-49.5234	-108.08	-19.4805	-13.9477	-91.8359	-18.3669	12.6639	-125.121	-7.09714	31.1067	-115.844	-36.276	1.27903	-104.314	-27.7698	28.2959	-134.608	-13.519	40.1087	-123.141	-48.0993	10.7146	-116.536	-35.9855	35.3443	-143.035	-27.1454	43.0023	-173.575	-34.8725	-3.05641	-196.299	-28.222	18.7646	-182.167	3.12301	7.14825	
164	1.36667	-163.844	21.8418	28.3986	-130.349	24.6656	24.5361	-103.538	9.24123	13.4447	-89.5536	-11.7216	9.26011	-126.137	8.17006	-38.1767	-103.264	7.84017	-51.0524	-81.8169	3.71807	-58.7815	-116.514	-14.6695	-21.1522	-96.9816	-13.8295	6.90183	-131.777	-7.17082	25.6101	-120.105	-32.429	-4.55659	-109.239	-27.662	23.8509	-135.538	-12.8995	35.8138	-128.37	-47.9797	5.60419	-120.392	-30.8818	28.7729	-148.407	-19.8914	36.4247	-177.449	-32.4947	-3.79608	-201.639	-30.5176	19.3464	-185.685	3.72348	2.11517	
165	1.375	-167.974	24.9852	24.4638	-135.905	25.135	17.061	-107.819	11.7093	4.0753	-97.5804	-10.9361	-0.362624	-139.317	10.8023	-42.5412	-113.923	6.59478	-59.717	-93.4614	3.65082	-71.013	-122.973	-15.5881	-27.0485	-103.024	-10.9784	0.250873	-135.284	-1.70193	19.7446	-125.416	-27.0597	-12.3667	-114.088	-21.4659	17.1082	-140.436	-10.6071	29.9817	-131.362	-42.2908	-2.38971	-123.139	-34.5796	22.8276	-148.798	-21.9988	30.9508	-185.255	-32.2886	-8.40975	-204.665	-27.2409	14.0807	-193.302	1.68505	0.505417	
